<svg width="32" height="32" viewBox="0 0 32 32" fill="none" xmlns="http://www.w3.org/2000/svg">
<g clip-path="url(#clip0_25053_22)">
<path d="M32.0003 10.4001L8.58963 20.3681C6.6483 21.1903 5.01807 21.6014 3.69896 21.6014C2.20563 21.6014 1.12252 21.0783 0.44963 20.0321C0.0274077 19.3601 -0.0970367 18.5076 0.0762966 17.4747C0.250519 16.4418 0.710963 15.3405 1.45763 14.1707C2.07985 13.2241 3.10074 11.9796 4.5203 10.4374C4.03817 11.1954 3.68494 12.028 3.47496 12.9014C3.10163 14.4943 3.43763 15.6641 4.48296 16.4107C4.98074 16.7592 5.66519 16.9334 6.5363 16.9334C7.2323 16.9334 8.0163 16.8214 8.8883 16.5974L32.0003 10.4001Z" fill="black"/>
</g>
<defs>
<clipPath id="clip0_25053_22">
<rect width="32" height="32" fill="white"/>
</clipPath>
</defs>
</svg>
