<svg width="32" height="32" viewBox="0 0 32 32" fill="none" xmlns="http://www.w3.org/2000/svg">
<g transform="translate(0, 9)">
<g clip-path="url(#clip0_25053_6)">
<path d="M30.3587 13.0617L25.6176 0.00861344L25.6144 0H25.5208L24.5445 2.68238L22.7671 7.56568L22.763 7.56182C22.147 7.01828 21.2779 6.67849 20.1834 6.55196L19.8495 6.5175L20.1807 6.47503C21.9857 6.15068 23.199 5.01072 23.199 3.6373C23.199 1.7539 21.4276 0.439294 18.8901 0.439294H13.6106V0.534637H15.1447V10.2665L11.4189 0.00861344L11.4157 0H11.3221L10.3458 2.68238L6.58017 13.0282L6.557 13.0308C6.49264 13.0388 6.42899 13.0451 6.36602 13.0499C6.27127 13.0573 6.17712 13.0617 6.08266 13.0617H2.27784L9.51027 0.534635L9.56403 0.440479H0.71849V4.31569H0.812349C0.828982 2.42814 1.92825 0.534635 4.35698 0.534635H7.28708L0 13.1556H9.81709V9.44285H9.72323C9.71046 11.088 8.77782 12.6507 6.74977 13.0035L6.68532 13.0145L8.22982 8.76921H12.5565L14.1156 13.0617H12.5776V13.1556H18.6139V13.0617H17.0694V6.58671H18.8515C20.6651 6.58671 21.7053 7.39697 21.7053 8.80901V9.95758C21.7053 10.0841 21.7139 10.2692 21.7234 10.4239V10.4295L20.7655 13.0611H19.5142V13.155H22.1045V13.0611H20.8665L21.7389 10.6648C21.7406 10.688 21.7415 10.7019 21.7415 10.7019L21.7656 10.9178L21.7888 11.0607C21.9343 11.9443 22.2723 12.5939 22.793 12.9913L22.8678 13.0457C23.2635 13.3207 23.755 13.46 24.3298 13.46C25.091 13.46 25.5986 13.2702 26.0177 12.8235L25.9628 12.7718C25.5767 13.1283 25.2526 13.2726 24.8466 13.2726C24.1548 13.2726 23.7928 12.4335 23.7928 11.606V9.99679C23.7964 9.59747 23.7339 9.20033 23.6077 8.82148L23.5905 8.77158V8.7698H26.7552L28.3143 13.0623H26.7763V13.1562H32V13.0623L30.3587 13.0617ZM8.26427 8.67535L10.3957 2.81961L12.5223 8.67535H8.26427ZM17.0703 6.49255V0.534635H18.4307C20.2478 0.534635 21.2072 1.6149 21.2072 3.6575C21.2072 5.8299 20.6565 6.49255 18.8515 6.49255H17.0703ZM23.5537 8.67535L23.5444 8.65218C23.4038 8.30966 23.1991 7.99713 22.9412 7.73142L22.8521 7.64231L22.8426 7.6334L24.5932 2.81961L26.7199 8.67535H23.5537Z" fill="black"/>
</g>
<defs>
<clipPath id="clip0_25053_6">
<rect width="32" height="13.46" fill="white"/>
</clipPath>
</defs>
</g>
</svg>
